<?xml version="1.0" encoding="utf-8"?>
<!-- Generator: Adobe Illustrator 22.1.0, SVG Export Plug-In . SVG Version: 6.00 Build 0)  -->
<svg version="1.1" xmlns="http://www.w3.org/2000/svg" xmlns:xlink="http://www.w3.org/1999/xlink" x="0px" y="0px"
	 viewBox="0 0 213.6 215.7" style="enable-background:new 0 0 213.6 215.7;" xml:space="preserve">
<style type="text/css">
	.st0{fill:#9E6341;}
	.st1{fill:#7A4F34;}
	.st2{fill:#A6714E;}
	.st3{fill:none;stroke:#7A4F34;stroke-width:5;stroke-linecap:round;stroke-linejoin:round;stroke-miterlimit:10;}
</style>
<g id="Calque_1">
</g>
<g id="Calque_2">
	<g>
		<g>
			<path class="st0" d="M104.9,77.6L104.9,77.6c-9.7-0.3-36.1-3.4-36.1-29c0-26.5,18.8-45.7,36.1-46.9V1.7l1,0c0.1,0,0.4,0,0.4,0
				s0.3,0,0.4,0h1v0.1c17.3,1.2,36.1,20.4,36.1,46.9c0,25.5-26.4,28.7-36.1,29v0l-1,0H104.9z"/>
			<path class="st1" d="M106.7,2.7L106.7,2.7c17.6,0.6,36.1,20.7,36.1,46c0,25-25.8,27.9-36.1,28v0c-0.1,0-0.3,0-0.4,0
				c-0.1,0-0.3,0-0.4,0v0c-10.3-0.1-36.1-3-36.1-28c0-25.3,18.4-45.4,36.1-46v0c0.1,0,0.3,0,0.4,0C106.4,2.7,106.5,2.7,106.7,2.7
				 M106.7,0.7c-0.1,0-0.2,0-0.3,0l-0.1,0l-0.1,0c-0.1,0-0.2,0-0.3,0h-2v0.2c-8.7,0.9-17.4,6-24.2,14.3
				c-7.7,9.3-11.9,21.2-11.9,33.5c0,11.4,5.3,20.1,15.3,25.1c7.2,3.6,15.5,4.6,20.8,4.8v0.1l2,0l0.2,0l0.1,0l0.1,0l0.2,0h2v-0.1
				c5.3-0.2,13.5-1.2,20.8-4.8c10-5,15.3-13.7,15.3-25.1c0-12.3-4.2-24.2-11.9-33.5C126,6.9,117.3,1.7,108.7,0.8V0.7L106.7,0.7
				L106.7,0.7z"/>
		</g>
		<path class="st2" d="M78.3,68.2c11.7-0.4,25.9-1.3,30.7-3.4c8.6-3.7,15.2-10.3,15.6-32.1c0.1-7.8-1-16.7-2.6-24.8
			c-4.9-3.2-10.1-5.1-15.3-5.3v0c-0.1,0-0.3,0-0.4,0c-0.1,0-0.3,0-0.4,0v0c-17.6,0.6-36.1,20.7-36.1,46C69.9,57.8,73.4,64,78.3,68.2
			z"/>
	</g>
	<g>
		<g>
			<g>
				<line class="st3" x1="181.1" y1="10.1" x2="181.1" y2="83.6"/>
				<line class="st3" x1="132.3" y1="97.1" x2="181.1" y2="83.6"/>
			</g>
			<g>
				<line class="st3" x1="30.8" y1="10.1" x2="30.8" y2="83.6"/>
				<line class="st3" x1="79.7" y1="97.1" x2="30.8" y2="83.6"/>
			</g>
		</g>
		<g>
			<g>
				<line class="st3" x1="209.5" y1="76.6" x2="186.8" y2="110.7"/>
				<line class="st3" x1="138.8" y1="110.7" x2="186.8" y2="110.7"/>
			</g>
			<g>
				<line class="st3" x1="3.7" y1="76.6" x2="26.5" y2="110.7"/>
				<line class="st3" x1="74.4" y1="110.7" x2="26.5" y2="110.7"/>
			</g>
		</g>
		<g>
			<g>
				<line class="st3" x1="181.1" y1="195.4" x2="181.1" y2="139.1"/>
				<line class="st3" x1="137" y1="124.9" x2="181.1" y2="139.1"/>
			</g>
			<g>
				<line class="st3" x1="30.3" y1="195.4" x2="30.3" y2="139.1"/>
				<line class="st3" x1="74.4" y1="124.9" x2="30.3" y2="139.1"/>
			</g>
		</g>
		<g>
			<g>
				<path class="st0" d="M104.8,143.9L104.8,143.9c-8.5-0.3-31.3-3.1-31.3-25.3c0-23,16.3-39.7,31.3-40.9v-0.1l1,0
					c0.1,0,0.3,0,0.3,0s0.2,0,0.3,0h1v0.1c15,1.2,31.3,17.9,31.3,40.9c0,22.2-22.8,25-31.3,25.3v0l-1,0H104.8z"/>
				<path class="st1" d="M106.4,78.6L106.4,78.6c15.3,0.5,31.3,18,31.3,40c0,21.7-22.4,24.2-31.3,24.3v0c-0.1,0-0.2,0-0.3,0
					c-0.1,0-0.2,0-0.3,0v0c-8.9-0.1-31.3-2.6-31.3-24.3c0-21.9,16-39.4,31.3-39.9v0c0.1,0,0.2,0,0.3,0
					C106.2,78.6,106.3,78.6,106.4,78.6 M106.4,76.6c-0.1,0-0.2,0-0.3,0l0,0l0,0c-0.1,0-0.2,0-0.3,0h-2v0.2
					c-7.5,0.9-15.1,5.3-21,12.5c-6.7,8.1-10.4,18.5-10.4,29.3c0,10,4.6,17.7,13.4,22.1c6.2,3.1,13.3,4,17.9,4.2v0.1l2,0l0.2,0l0.1,0
					l0.1,0l0.2,0h2v-0.1c4.6-0.2,11.7-1.1,17.9-4.2c8.8-4.4,13.4-12,13.4-22.1c0-10.8-3.7-21.2-10.4-29.3
					c-5.9-7.2-13.4-11.6-21-12.5v-0.1L106.4,76.6L106.4,76.6z"/>
			</g>
			<path class="st2" d="M81.8,135.6c10.1-0.4,22.5-1.1,26.7-2.9c7.5-3.2,13.2-8.9,13.6-27.9c0.1-6.8-0.9-14.5-2.3-21.6
				c-4.2-2.8-8.8-4.4-13.3-4.6v0c-0.1,0-0.2,0-0.3,0c-0.1,0-0.2,0-0.3,0v0c-15.3,0.5-31.3,18-31.3,39.9
				C74.4,126.5,77.5,131.9,81.8,135.6z"/>
		</g>
	</g>
	<g>
		<path class="st1" d="M117.8,186.1v29.6c0,0,5.7-5.4,8.5-13.4c2.8-8,5.4-18.6,5.3-25.2c-0.1-6.7-13.9,5.8-13.9,5.8V186.1z"/>
		<path class="st1" d="M94.1,186.1v29.6c0,0-5.7-5.4-8.5-13.4c-2.8-8-5.4-18.6-5.3-25.2c0.1-6.7,13.9,5.8,13.9,5.8V186.1z"/>
		<g>
			<g>
				<line class="st3" x1="65.1" y1="209.1" x2="65.1" y2="175.1"/>
				<line class="st3" x1="79.7" y1="167.5" x2="65.1" y2="175.1"/>
			</g>
			<g>
				<line class="st3" x1="147.5" y1="209.1" x2="147.5" y2="175.1"/>
				<line class="st3" x1="132.9" y1="167.5" x2="147.5" y2="175.1"/>
			</g>
		</g>
		<g>
			<g>
				<path class="st0" d="M106.2,202l-0.2,0h-1v-0.1c-12.6-1.1-26.3-15.1-26.3-34.5c0-18.7,19-21.2,26.3-21.4v0l2.6,0v0
					c7.3,0.3,26.3,2.7,26.3,21.4c0,19.3-13.7,33.4-26.3,34.5v0.1l-1,0L106.2,202z"/>
				<path class="st1" d="M106.6,147L106.6,147c7.5,0.1,26.3,2.2,26.3,20.4c0,18.4-13.4,33.1-26.3,33.5v0c-0.1,0-0.2,0-0.3,0
					c-0.1,0-0.2,0-0.3,0v0c-12.9-0.4-26.3-15.1-26.3-33.5c0-18.2,18.8-20.3,26.3-20.4v0c0.1,0,0.2,0,0.3,0
					C106.4,147,106.5,147,106.6,147 M106.6,145l-0.2,0l-0.1,0l-0.1,0l-0.2,0h-2v0.1c-8.2,0.5-26.3,3.6-26.3,22.4
					c0,9.1,3.1,17.9,8.8,24.8c4.9,6,11.2,9.8,17.5,10.6v0.2l2,0c0.1,0,0.2,0,0.2,0l0,0l0,0c0.1,0,0.2,0,0.2,0h2v-0.2
					c6.3-0.8,12.6-4.6,17.5-10.6c5.7-6.9,8.8-15.7,8.8-24.8c0-18.8-18.2-21.9-26.3-22.4V145L106.6,145L106.6,145z"/>
			</g>
			<path class="st2" d="M85.8,153.2c8.5,0.3,18.9,1,22.4,2.5c6.3,2.7,11.1,7.5,11.4,23.4c0.1,5.7-0.8,12.2-1.9,18.1
				c-3.5,2.3-7.4,3.7-11.2,3.8v0c-0.1,0-0.2,0-0.3,0c-0.1,0-0.2,0-0.3,0v0c-12.9-0.4-26.3-15.1-26.3-33.5
				C79.7,160.7,82.2,156.2,85.8,153.2z"/>
		</g>
	</g>
</g>
</svg>
