<?xml version="1.0" encoding="utf-8"?>
<!-- Generator: Adobe Illustrator 22.1.0, SVG Export Plug-In . SVG Version: 6.00 Build 0)  -->
<svg version="1.1" xmlns="http://www.w3.org/2000/svg" xmlns:xlink="http://www.w3.org/1999/xlink" x="0px" y="0px"
	 viewBox="0 0 515.9 728.5" style="enable-background:new 0 0 515.9 728.5;" xml:space="preserve">
<style type="text/css">
	.st0{display:none;}
	.st1{display:inline;fill:#1B0C59;}
	.st2{display:inline;opacity:0.8;}
	.st3{fill:#EDDEAE;}
	.st4{fill:#1B0C59;}
	.st5{opacity:0.8;}
	.st6{fill:#DBDBDB;}
	.st7{fill:#1E1E1E;}
	.st8{fill:#3F1B96;}
	.st9{fill:#5D21D2;}
	.st10{fill:#FFF8DC;}
	.st11{fill:#A08CD1;}
</style>
<g id="Calque_1" class="st0">
	<g id="arm_2_">
		<rect x="359.8" y="328.2" class="st1" width="26.9" height="386"/>
		<g class="st2">
			<rect x="360.5" y="329.1" class="st3" width="25.6" height="2.3"/>
			<rect x="360.5" y="335.1" class="st3" width="25.6" height="2.3"/>
			<rect x="360.5" y="341.2" class="st3" width="25.6" height="2.3"/>
			<rect x="360.5" y="347.2" class="st3" width="25.6" height="2.3"/>
			<rect x="360.5" y="353.2" class="st3" width="25.6" height="2.3"/>
			<rect x="360.5" y="359.2" class="st3" width="25.6" height="2.3"/>
			<rect x="360.5" y="365.3" class="st3" width="25.6" height="2.3"/>
			<rect x="360.5" y="371.3" class="st3" width="25.6" height="2.3"/>
			<rect x="360.5" y="377.4" class="st3" width="25.6" height="2.3"/>
			<rect x="360.5" y="383.4" class="st3" width="25.6" height="2.3"/>
			<rect x="360.5" y="389.5" class="st3" width="25.6" height="2.3"/>
			<rect x="360.5" y="395.5" class="st3" width="25.6" height="2.3"/>
			<rect x="360.5" y="401.4" class="st3" width="25.6" height="2.3"/>
			<rect x="360.5" y="407.4" class="st3" width="25.6" height="2.3"/>
			<rect x="360.5" y="413.5" class="st3" width="25.6" height="2.3"/>
			<rect x="360.5" y="419.5" class="st3" width="25.6" height="2.3"/>
			<rect x="360.5" y="425.5" class="st3" width="25.6" height="2.3"/>
			<rect x="360.5" y="431.5" class="st3" width="25.6" height="2.3"/>
			<rect x="360.5" y="437.7" class="st3" width="25.6" height="2.3"/>
			<rect x="360.5" y="443.7" class="st3" width="25.6" height="2.3"/>
			<rect x="360.5" y="449.6" class="st3" width="25.6" height="2.3"/>
			<rect x="360.5" y="455.6" class="st3" width="25.6" height="2.3"/>
			<rect x="360.5" y="461.7" class="st3" width="25.6" height="2.3"/>
			<rect x="360.5" y="467.7" class="st3" width="25.6" height="2.3"/>
			<rect x="360.5" y="473.8" class="st3" width="25.6" height="2.3"/>
			<rect x="360.5" y="479.8" class="st3" width="25.6" height="2.3"/>
			<rect x="360.5" y="485.9" class="st3" width="25.6" height="2.3"/>
			<rect x="360.5" y="491.9" class="st3" width="25.6" height="2.3"/>
			<rect x="360.5" y="497.9" class="st3" width="25.6" height="2.3"/>
			<rect x="360.5" y="503.9" class="st3" width="25.6" height="2.3"/>
			<rect x="360.5" y="510" class="st3" width="25.6" height="2.3"/>
			<rect x="360.5" y="516" class="st3" width="25.6" height="2.3"/>
			<rect x="360.5" y="522" class="st3" width="25.6" height="2.3"/>
			<rect x="360.5" y="528" class="st3" width="25.6" height="2.3"/>
			<rect x="360.5" y="534.1" class="st3" width="25.6" height="2.3"/>
			<rect x="360.5" y="540.1" class="st3" width="25.6" height="2.3"/>
			<rect x="360.5" y="546" class="st3" width="25.6" height="2.3"/>
			<rect x="360.5" y="552" class="st3" width="25.6" height="2.3"/>
			<rect x="360.5" y="558.2" class="st3" width="25.6" height="2.3"/>
			<rect x="360.5" y="564.2" class="st3" width="25.6" height="2.3"/>
			<rect x="360.5" y="570.3" class="st3" width="25.6" height="2.3"/>
			<rect x="360.5" y="576.3" class="st3" width="25.6" height="2.3"/>
			<rect x="360.5" y="582.4" class="st3" width="25.6" height="2.3"/>
			<rect x="360.5" y="588.4" class="st3" width="25.6" height="2.3"/>
			<rect x="360.5" y="594.3" class="st3" width="25.6" height="2.3"/>
			<rect x="360.5" y="600.3" class="st3" width="25.6" height="2.3"/>
			<rect x="360.5" y="606.4" class="st3" width="25.6" height="2.3"/>
			<rect x="360.5" y="612.4" class="st3" width="25.6" height="2.3"/>
			<rect x="360.5" y="618.4" class="st3" width="25.6" height="2.3"/>
			<rect x="360.5" y="624.4" class="st3" width="25.6" height="2.3"/>
			<rect x="360.5" y="630.5" class="st3" width="25.6" height="2.3"/>
			<rect x="360.5" y="636.5" class="st3" width="25.6" height="2.3"/>
			<rect x="360.5" y="642.5" class="st3" width="25.6" height="2.3"/>
			<rect x="360.5" y="648.5" class="st3" width="25.6" height="2.3"/>
			<rect x="360.5" y="654.6" class="st3" width="25.6" height="2.3"/>
			<rect x="360.5" y="660.6" class="st3" width="25.6" height="2.3"/>
			<rect x="360.5" y="666.7" class="st3" width="25.6" height="2.3"/>
			<rect x="360.5" y="672.7" class="st3" width="25.6" height="2.3"/>
			<rect x="360.5" y="678.8" class="st3" width="25.6" height="2.3"/>
			<rect x="360.5" y="684.8" class="st3" width="25.6" height="2.3"/>
			<rect x="360.5" y="690.8" class="st3" width="25.6" height="2.3"/>
			<rect x="360.5" y="696.8" class="st3" width="25.6" height="2.3"/>
			<rect x="360.5" y="702.9" class="st3" width="25.6" height="2.3"/>
			<rect x="360.5" y="708.9" class="st3" width="25.6" height="2.3"/>
		</g>
	</g>
</g>
<g id="Calque_2">
	<g id="Leg">
		<rect x="135.9" y="205.4" class="st4" width="26.7" height="48.6"/>
		<g class="st5">
			<rect x="136.4" y="223" class="st3" width="25.6" height="2.3"/>
			<rect x="136.4" y="217" class="st3" width="25.6" height="2.3"/>
			<rect x="136.4" y="229" class="st3" width="25.6" height="2.3"/>
			<rect x="136.4" y="235" class="st3" width="25.6" height="2.3"/>
			<rect x="136.4" y="241" class="st3" width="25.6" height="2.3"/>
			<rect x="136.4" y="247" class="st3" width="25.6" height="2.3"/>
		</g>
	</g>
	<g id="Wheel">
		<circle class="st6" cx="149.2" cy="266.3" r="24.2"/>
		<circle class="st7" cx="149.2" cy="266.3" r="23"/>
		<circle class="st6" cx="149.2" cy="266.3" r="15.5"/>
		<circle class="st7" cx="149.2" cy="266.3" r="6.1"/>
	</g>
	<g id="Antenna">
		<rect x="166.3" y="13.2" class="st4" width="4" height="24.2"/>
		<circle class="st8" cx="168.3" cy="7" r="6.9"/>
		<path class="st9" d="M165,13c1,0.6,2.1,0.9,3.3,0.9c3.8,0,6.9-3.1,6.9-6.9c0-2.3-1.1-4.3-2.8-5.5C167.3,3.8,163.6,7.5,165,13z"/>
	</g>
	<g id="Antenna_1_">
		<rect x="126.3" y="13.2" class="st4" width="4" height="24.2"/>
		<circle class="st8" cx="128.3" cy="7" r="6.9"/>
		<path class="st9" d="M125,13c1,0.6,2.1,0.9,3.3,0.9c3.8,0,6.9-3.1,6.9-6.9c0-2.3-1.1-4.3-2.8-5.5C127.3,3.8,123.6,7.5,125,13z"/>
	</g>
	<g id="Neck">
		<rect x="134.7" y="74.5" class="st4" width="26.7" height="48.6"/>
		<g class="st5">
			<rect x="135.3" y="92.1" class="st3" width="25.6" height="2.3"/>
			<rect x="135.3" y="86.1" class="st3" width="25.6" height="2.3"/>
			<rect x="135.3" y="98.1" class="st3" width="25.6" height="2.3"/>
			<rect x="135.3" y="104.1" class="st3" width="25.6" height="2.3"/>
			<rect x="135.3" y="110.1" class="st3" width="25.6" height="2.3"/>
			<rect x="135.3" y="116.1" class="st3" width="25.6" height="2.3"/>
		</g>
	</g>
	<g id="arm">
		<rect x="29.8" y="129.6" class="st4" width="232.9" height="26.9"/>
		<g class="st5">
			
				<rect x="15.9" y="141.9" transform="matrix(6.123234e-17 -1 1 6.123234e-17 -114.3643 171.7629)" class="st3" width="25.6" height="2.3"/>
			
				<rect x="22" y="141.9" transform="matrix(6.123234e-17 -1 1 6.123234e-17 -108.2539 177.8733)" class="st3" width="25.6" height="2.3"/>
			
				<rect x="28" y="141.9" transform="matrix(6.123234e-17 -1 1 6.123234e-17 -102.2539 183.8733)" class="st3" width="25.6" height="2.3"/>
			
				<rect x="34" y="141.9" transform="matrix(6.123234e-17 -1 1 6.123234e-17 -96.3091 189.8181)" class="st3" width="25.6" height="2.3"/>
			
				<rect x="40" y="141.9" transform="matrix(6.123234e-17 -1 1 6.123234e-17 -90.3091 195.8181)" class="st3" width="25.6" height="2.3"/>
			
				<rect x="46.1" y="141.9" transform="matrix(6.123234e-17 -1 1 6.123234e-17 -84.1987 201.9285)" class="st3" width="25.6" height="2.3"/>
			
				<rect x="52.1" y="141.9" transform="matrix(6.123234e-17 -1 1 6.123234e-17 -78.1987 207.9285)" class="st3" width="25.6" height="2.3"/>
			
				<rect x="58.2" y="141.9" transform="matrix(6.123234e-17 -1 1 6.123234e-17 -72.0882 214.039)" class="st3" width="25.6" height="2.3"/>
			
				<rect x="64.2" y="141.9" transform="matrix(6.123234e-17 -1 1 6.123234e-17 -66.0882 220.039)" class="st3" width="25.6" height="2.3"/>
			
				<rect x="70.3" y="141.9" transform="matrix(6.123234e-17 -1 1 6.123234e-17 -59.9778 226.1494)" class="st3" width="25.6" height="2.3"/>
			
				<rect x="76.3" y="141.9" transform="matrix(6.123234e-17 -1 1 6.123234e-17 -53.9778 232.1494)" class="st3" width="25.6" height="2.3"/>
			
				<rect x="82.2" y="141.9" transform="matrix(6.123234e-17 -1 1 6.123234e-17 -48.033 238.0942)" class="st3" width="25.6" height="2.3"/>
			
				<rect x="88.2" y="141.9" transform="matrix(6.123234e-17 -1 1 6.123234e-17 -42.033 244.0942)" class="st3" width="25.6" height="2.3"/>
			
				<rect x="94.4" y="141.9" transform="matrix(6.123234e-17 -1 1 6.123234e-17 -35.9226 250.2046)" class="st3" width="25.6" height="2.3"/>
			
				<rect x="100.4" y="141.9" transform="matrix(6.123234e-17 -1 1 6.123234e-17 -29.9226 256.2046)" class="st3" width="25.6" height="2.3"/>
			
				<rect x="106.4" y="141.9" transform="matrix(6.123234e-17 -1 1 6.123234e-17 -23.9226 262.2046)" class="st3" width="25.6" height="2.3"/>
			
				<rect x="112.4" y="141.9" transform="matrix(6.123234e-17 -1 1 6.123234e-17 -17.9226 268.2046)" class="st3" width="25.6" height="2.3"/>
			
				<rect x="118.5" y="141.9" transform="matrix(6.123234e-17 -1 1 6.123234e-17 -11.8122 274.315)" class="st3" width="25.6" height="2.3"/>
			
				<rect x="124.5" y="141.9" transform="matrix(6.123234e-17 -1 1 6.123234e-17 -5.8122 280.315)" class="st3" width="25.6" height="2.3"/>
			
				<rect x="130.4" y="141.9" transform="matrix(6.123234e-17 -1 1 6.123234e-17 0.1326 286.2598)" class="st3" width="25.6" height="2.3"/>
			
				<rect x="136.4" y="141.9" transform="matrix(6.123234e-17 -1 1 6.123234e-17 6.1326 292.2598)" class="st3" width="25.6" height="2.3"/>
			
				<rect x="142.5" y="141.9" transform="matrix(6.123234e-17 -1 1 6.123234e-17 12.243 298.3702)" class="st3" width="25.6" height="2.3"/>
			
				<rect x="148.5" y="141.9" transform="matrix(6.123234e-17 -1 1 6.123234e-17 18.243 304.3702)" class="st3" width="25.6" height="2.3"/>
			
				<rect x="154.6" y="141.9" transform="matrix(6.123234e-17 -1 1 6.123234e-17 24.3535 310.4807)" class="st3" width="25.6" height="2.3"/>
			
				<rect x="160.6" y="141.9" transform="matrix(6.123234e-17 -1 1 6.123234e-17 30.3535 316.4807)" class="st3" width="25.6" height="2.3"/>
			
				<rect x="166.7" y="141.9" transform="matrix(6.123234e-17 -1 1 6.123234e-17 36.4639 322.5911)" class="st3" width="25.6" height="2.3"/>
			
				<rect x="172.7" y="141.9" transform="matrix(6.123234e-17 -1 1 6.123234e-17 42.4639 328.5911)" class="st3" width="25.6" height="2.3"/>
			
				<rect x="178.7" y="141.9" transform="matrix(6.123234e-17 -1 1 6.123234e-17 48.4087 334.5359)" class="st3" width="25.6" height="2.3"/>
			
				<rect x="184.7" y="141.9" transform="matrix(6.123234e-17 -1 1 6.123234e-17 54.4087 340.5359)" class="st3" width="25.6" height="2.3"/>
			
				<rect x="190.8" y="141.9" transform="matrix(6.123234e-17 -1 1 6.123234e-17 60.5191 346.6463)" class="st3" width="25.6" height="2.3"/>
			
				<rect x="196.8" y="141.9" transform="matrix(6.123234e-17 -1 1 6.123234e-17 66.5191 352.6463)" class="st3" width="25.6" height="2.3"/>
			
				<rect x="202.8" y="141.9" transform="matrix(6.123234e-17 -1 1 6.123234e-17 72.5191 358.6463)" class="st3" width="25.6" height="2.3"/>
			
				<rect x="208.8" y="141.9" transform="matrix(6.123234e-17 -1 1 6.123234e-17 78.5191 364.6463)" class="st3" width="25.6" height="2.3"/>
			
				<rect x="214.9" y="141.9" transform="matrix(6.123234e-17 -1 1 6.123234e-17 84.6295 370.7567)" class="st3" width="25.6" height="2.3"/>
			
				<rect x="220.9" y="141.9" transform="matrix(6.123234e-17 -1 1 6.123234e-17 90.6295 376.7567)" class="st3" width="25.6" height="2.3"/>
			
				<rect x="226.9" y="141.9" transform="matrix(6.123234e-17 -1 1 6.123234e-17 96.5743 382.7015)" class="st3" width="25.6" height="2.3"/>
			
				<rect x="232.9" y="141.9" transform="matrix(6.123234e-17 -1 1 6.123234e-17 102.5743 388.7015)" class="st3" width="25.6" height="2.3"/>
			
				<rect x="239" y="141.9" transform="matrix(6.123234e-17 -1 1 6.123234e-17 108.6848 394.812)" class="st3" width="25.6" height="2.3"/>
			
				<rect x="245" y="141.9" transform="matrix(6.123234e-17 -1 1 6.123234e-17 114.6848 400.812)" class="st3" width="25.6" height="2.3"/>
			
				<rect x="251.1" y="141.9" transform="matrix(6.123234e-17 -1 1 6.123234e-17 120.7952 406.9224)" class="st3" width="25.6" height="2.3"/>
		</g>
		<polygon class="st9" points="0.2,125.9 22.5,125.9 22.5,160.2 0.2,160.2 0.2,165.9 29.8,165.9 29.8,120.3 0.2,120.3 		"/>
		<polygon class="st9" points="292.4,125.9 270.1,125.9 270.1,160.2 292.4,160.2 292.4,165.9 262.7,165.9 262.7,120.3 292.4,120.3 
					"/>
	</g>
	<g id="Body">
		<path class="st8" d="M183.9,226.3h-71.7c-6.6,0-12-5.4-12-12v-86.7c0-6.6,5.4-12,12-12h71.7c6.6,0,12,5.4,12,12v86.7
			C195.9,220.9,190.5,226.3,183.9,226.3z"/>
		<path class="st9" d="M183.9,115.6h-10.7c-57.8,0-56.4,38.1-56.4,57.8c0,11.3,0,33.3,0,52.9h67.1c6.6,0,12-5.4,12-12v-86.7
			C195.9,121,190.5,115.6,183.9,115.6z"/>
		<g id="Button">
			<circle class="st10" cx="144.2" cy="144.8" r="11.6"/>
			<circle class="st4" cx="144.2" cy="144.8" r="10"/>
			<circle class="st10" cx="144.2" cy="144.8" r="3.5"/>
		</g>
	</g>
	<g id="Face">
		<path class="st8" d="M191.2,64.2L191,49.8c0,0,0.9-8.5-1.2-8.5c-2,0-6.9-4.8-10.4-8.7c-7.3-8.7-18.6-14.3-31.3-14.3
			c-12.5,0-23.7,5.5-31,14l0,0c-3.5,3.9-8.7,9.1-10.7,9.1c-2.1,0-1.2,8.5-1.2,8.5L105,64.2c0,0-0.4,4,3.1,4c0.6,0,1.4,0,2.2-0.1
			c1.5,4.2,3.8,8.1,6.7,11.4c4.9,4.9,19.4,4.5,31.1,4.5c11.7,0,26.2,0.4,31.1-4.5c2.9-3.4,5.2-7.2,6.7-11.4c0.9,0.1,1.6,0.1,2.2,0.1
			C191.5,68.2,191.2,64.2,191.2,64.2z"/>
		<path class="st9" d="M191.2,64.2L191,49.8c0,0,0.9-8.5-1.2-8.5c-2,0-6.9-4.8-10.4-8.7c-5.4-6.5-13.1-11.2-21.8-13.2
			c-8.5,2.2-21.2,5.9-28.5,11.8c-7.4,5.8-8,15.8-8,15.8s0,19.6,0,35c6.6,2.4,17.7,2.1,27.1,2.1c11.7,0,26.2,0.4,31.1-4.5
			c2.9-3.4,5.2-7.2,6.7-11.4c0.9,0.1,1.6,0.1,2.2,0.1C191.5,68.2,191.2,64.2,191.2,64.2z"/>
		<path class="st4" d="M106.2,68.1L106.2,68.1c-2.2,0-4.1-1.8-4.1-4.1V35.2c0-2.2,1.8-4.1,4.1-4.1h0c2.2,0,4.1,1.8,4.1,4.1V64
			C110.3,66.3,108.5,68.1,106.2,68.1z"/>
		<path class="st4" d="M189.8,68.1L189.8,68.1c-2.2,0-4.1-1.8-4.1-4.1V35.2c0-2.2,1.8-4.1,4.1-4.1h0c2.2,0,4.1,1.8,4.1,4.1V64
			C193.9,66.3,192.1,68.1,189.8,68.1z"/>
		<g id="Eye">
			<circle class="st4" cx="130.4" cy="54.8" r="13.5"/>
			<circle class="st10" cx="130.4" cy="54.8" r="9.4"/>
			<circle class="st11" cx="130.4" cy="54.8" r="4.2"/>
		</g>
		<g id="Eye_1_">
			<circle class="st4" cx="165.7" cy="54.8" r="13.5"/>
			<circle class="st10" cx="165.7" cy="54.8" r="9.4"/>
			<circle class="st11" cx="165.7" cy="54.8" r="4.2"/>
		</g>
	</g>
	<g id="Button_1_">
		<circle class="st10" cx="162.5" cy="190.5" r="9.1"/>
		<circle class="st4" cx="162.5" cy="190.5" r="7.9"/>
		<circle class="st10" cx="162.5" cy="190.5" r="2.8"/>
	</g>
</g>
</svg>
